<?xml version="1.0" encoding="UTF-8" standalone="no"?>
<svg
   xmlns:dc="http://purl.org/dc/elements/1.1/"
   xmlns:cc="http://creativecommons.org/ns#"
   xmlns:rdf="http://www.w3.org/1999/02/22-rdf-syntax-ns#"
   xmlns:svg="http://www.w3.org/2000/svg"
   xmlns="http://www.w3.org/2000/svg"
   xmlns:sodipodi="http://sodipodi.sourceforge.net/DTD/sodipodi-0.dtd"
   xmlns:inkscape="http://www.inkscape.org/namespaces/inkscape"
   version="1.1"
   x="0px"
   y="0px"
   viewBox="0 0 64 80"
   style="enable-background:new 0 0 64 64;"
   xml:space="preserve"
   id="svg1175"
   sodipodi:docname="Magnifying Glass.svg"
   inkscape:version="1.0.1 (3bc2e813f5, 2020-09-07)"><metadata
     id="metadata1181"><rdf:RDF><cc:Work
         rdf:about=""><dc:format>image/svg+xml</dc:format><dc:type
           rdf:resource="http://purl.org/dc/dcmitype/StillImage" /><dc:title></dc:title></cc:Work></rdf:RDF></metadata><defs
     id="defs1179" /><sodipodi:namedview
     pagecolor="#ffffff"
     bordercolor="#666666"
     borderopacity="1"
     objecttolerance="10"
     gridtolerance="10"
     guidetolerance="10"
     inkscape:pageopacity="0"
     inkscape:pageshadow="2"
     inkscape:window-width="2880"
     inkscape:window-height="1706"
     id="namedview1177"
     showgrid="false"
     inkscape:zoom="17.819091"
     inkscape:cx="43.98582"
     inkscape:cy="44.862464"
     inkscape:window-x="-11"
     inkscape:window-y="252"
     inkscape:window-maximized="1"
     inkscape:current-layer="svg1175" /><g
     id="g1767"
     inkscape:export-xdpi="142.98712"
     inkscape:export-ydpi="142.98712"><path
       d="m 37.42,41.2 c 0,0 0,0 0,0 0.17,-0.14 0.39,-0.14 0.57,-0.04 0.02,0.01 0.03,0.02 0.04,0.04 0.03,0.03 0.07,0.05 0.1,0.08 l 0.01,0.01 c 0,0 0,0 0,0 0,0 0,0 0,0 l 9.94,12.61 c 0.74,0.94 1.85,1.52 3.05,1.59 1.19,0.07 2.37,-0.37 3.22,-1.22 0.87,-0.87 1.31,-2.05 1.23,-3.26 C 55.5,49.8 54.9,48.69 53.94,47.96 L 41.2,38.22 c -0.22,-0.17 -0.26,-0.48 -0.09,-0.7 0,0 0.01,0 0.01,-0.01 5.37,-7.18 4.64,-17.36 -1.7,-23.7 -7.08,-7.08 -18.61,-7.08 -25.69,0 -7.08,7.08 -7.08,18.61 0,25.69 6.33,6.34 16.51,7.07 23.69,1.7 z"
       id="path1169"
       style="fill:#999999" /><path
       d="m 49.12,48.98 c 1.23,-1.23 3.24,-1.23 4.48,0 0.6,0.6 0.93,1.39 0.93,2.24 0,0.85 -0.33,1.64 -0.93,2.24 -0.62,0.62 -1.43,0.93 -2.24,0.93 -0.81,0 -1.62,-0.31 -2.24,-0.93 -0.6,-0.6 -0.93,-1.39 -0.93,-2.24 0,-0.85 0.33,-1.64 0.93,-2.24 z"
       id="path1746"
       style="fill:#ffffff" /><path
       d="m 52.89,52.75 c 0.41,-0.41 0.63,-0.95 0.63,-1.53 0,-0.58 -0.23,-1.12 -0.63,-1.53 -0.42,-0.42 -0.98,-0.63 -1.53,-0.63 -0.55,0 -1.11,0.21 -1.53,0.63 -0.41,0.41 -0.63,0.95 -0.63,1.53 0,0.58 0.23,1.12 0.63,1.53 0.84,0.85 2.22,0.85 3.06,0 z"
       id="path1167"
       style="fill:#999999" /><path
       d="m 26.57,11.03 c 8.61,0 15.62,7.01 15.62,15.62 0,8.61 -7.01,15.62 -15.62,15.62 -8.61,0 -15.62,-7.01 -15.62,-15.62 0,-8.61 7,-15.62 15.62,-15.62 z"
       id="path1748"
       style="fill:#ffffff" /></g></svg>
